/* XPM */
static char *_c25075e691f45e6aad2dd114cbb532d37t48yROtjFz3mvK[] = {
/* columns rows colors chars-per-pixel */
"50 50 177 2 ",
"   c None",
".  c #0C5F0F",
"X  c #0D5F11",
"o  c #0F6A0B",
"O  c #0D630F",
"+  c #116C0C",
"@  c #167D06",
"#  c #187F07",
"$  c #14740A",
"%  c #167A09",
"&  c #197E09",
"*  c #117406",
"=  c #136713",
"-  c #1C7814",
";  c #247C1B",
":  c #237A14",
">  c #2F7D2C",
",  c #178203",
"<  c #198405",
"1  c #178900",
"2  c #1C8C04",
"3  c #198109",
"4  c #1E9202",
"5  c #208E08",
"6  c #248F05",
"7  c #219601",
"8  c #239A00",
"9  c #2B9B03",
"0  c #2C9409",
"q  c #319B06",
"w  c #3C9F07",
"e  c #389A08",
"r  c #319B08",
"t  c #248416",
"y  c #288818",
"u  c #339817",
"i  c #2CA101",
"p  c #33A502",
"a  c #3AA404",
"s  c #36A901",
"d  c #3CAB02",
"f  c #35A00B",
"g  c #3FB001",
"h  c #2F8024",
"j  c #378C2C",
"k  c #3A9C23",
"l  c #389328",
"z  c #3D8C36",
"x  c #44AD05",
"c  c #40A406",
"v  c #43B201",
"b  c #49B502",
"n  c #4DB902",
"m  c #53BB03",
"M  c #55B905",
"N  c #4CAB15",
"B  c #49A01B",
"V  c #448E38",
"C  c #45933A",
"Z  c #469938",
"A  c #579F37",
"S  c #4CAA21",
"D  c #4EA931",
"F  c #58A735",
"G  c #5DB636",
"H  c #5CC302",
"J  c #62C702",
"K  c #65CA03",
"L  c #6AC718",
"P  c #498B47",
"I  c #56974D",
"U  c #569553",
"Y  c #579A50",
"T  c #60995F",
"R  c #68AE56",
"E  c #68A860",
"W  c #67A163",
"Q  c #73AC6B",
"!  c #72B565",
"~  c #7CAF76",
"^  c #7DB574",
"/  c #7CB872",
"(  c #72C04F",
")  c #E6BF00",
"_  c #E3BD0B",
"`  c #E2BE11",
"'  c #DDB925",
"]  c #89D734",
"[  c #E7C503",
"{  c #ECCE00",
"}  c #EACC0A",
"|  c #EED400",
" . c #F1DB01",
".. c #F4E400",
"X. c #F7ED00",
"o. c #FBF703",
"O. c #FEFD00",
"+. c #F4EB1E",
"@. c #F3E529",
"#. c #81B777",
"$. c #9BDA5C",
"%. c #9CDE50",
"&. c #95CE6B",
"*. c #96D160",
"=. c #A4D57D",
"-. c #A9E073",
";. c #E2C441",
":. c #EDD65D",
">. c #D9C46D",
",. c #EDD765",
"<. c #EED878",
"1. c #86B382",
"2. c #8CBC84",
"3. c #91BC8D",
"4. c #92B892",
"5. c #91C189",
"6. c #96C783",
"7. c #A8D48D",
"8. c #A2C69F",
"9. c #A6CC95",
"0. c #A1C3A1",
"q. c #ABC5AC",
"w. c #ABC9AA",
"e. c #A9CDA1",
"r. c #B0CCAE",
"t. c #B8CDB9",
"y. c #B4D1B1",
"u. c #BBDBB4",
"i. c #BBD6BA",
"p. c #CED28F",
"a. c #E3D494",
"s. c #C6EC99",
"d. c #F1E38E",
"f. c #F8F398",
"g. c #D4CBA9",
"h. c #DFD4A8",
"j. c #DDD4B3",
"k. c #E7DAA6",
"l. c #D1F0AB",
"z. c #D4F0B2",
"x. c #F2E7A3",
"c. c #C3D5C4",
"v. c #CBDCCA",
"b. c #DDDACF",
"n. c #D5DDD5",
"m. c #CDE1CB",
"M. c #DCEFCC",
"N. c #D6E5D5",
"B. c #DAE5D9",
"V. c #DEE9DD",
"C. c #E8E2CC",
"Z. c #F4F2CE",
"A. c #EEEBD8",
"S. c #ECFAD8",
"D. c #E3EBE3",
"F. c #E7E7E9",
"G. c #EDEEED",
"H. c #E5E8E8",
"J. c #EDF3ED",
"K. c #F1F2ED",
"L. c #F4FCE9",
"P. c #EFEFF0",
"I. c #EBF2F3",
"U. c #EEF6FC",
"Y. c #F5F5F5",
"T. c #F3F3F3",
"R. c #FBFCF5",
"E. c #F5F6F9",
"W. c #F8F7F8",
"Q. c #F8F7F8",
"!. c #F8F8F9",
"~. c #FBFBFB",
"^. c #FAFAFA",
"/. c #F9F9FA",
"(. c #FDFCFD",
"). c #FAFAFA",
"_. c #F6F9F8",
/* pixels */
"                                          b M M M                                                   ",
"                                            J K J m v                                               ",
"                                            H H H m b s                                             ",
"                                            m H m n d s i                                           ",
"                                            b n n v d i 9                                           ",
"                                            d v g d p i 8                                           ",
"                            + $ $ % # <     s s p i 9 8 7 4                                         ",
"                        O + + $ % # < < 2 2 9 i i i 7 4 4 2                                         ",
"                      O = + + * $ & 3 2 2 4 8 8 4 4 4 2 2 2                                         ",
"                  X . A 9.> B F t @ 3 2 2 4 4 4 4 4 2 2 2 <                                         ",
"                  X X V T : $.S.6.3 < 2 2 2 2 2 4 2 2 < < 3                                         ",
"                            I w.~ 3 , 2 2 < < < 1 , , @ @ %                                         ",
"                              $ % @ < 2 4 < # Z / / Z : E y.                                        ",
"                                % @ , < 2 < @ E !.!.c.Y D.E.G.      G.                              ",
"                                  l Z l 2 1 * z D.(.G.w.D.E.G.    Y.G.T.                            ",
"                                  ~.J.V.e.R t $ 0.(.T.D.Y.Y.T.  !.Y.T.Y.                            ",
"                                  !.(.(.T.G.i.U P D.Y.I.!.W.T.Y.^.T.Y.W.                            ",
"                    % % % ; w.G.G.  !.~.Q.T.U.J.0.q.Y.G.Q.W.T.Q.!.G.W.!.    G.G.Y.                  ",
"                < 2 < < # t i.Y.T.T.T.Y.Q._.T.Q.E.V.J.P.Y.Y.T.!.Y.T.!.    T.G.Y.!.                  ",
"              2 4 2 1 , # @ j 1.v.T.Y.Y.Y._.Y.G.G.E.~.T.K.Y.T.~.T.T.(.!.Y.G.Y.!.(.                  ",
"            8 8 4 4 2 2 y l C C Y 1.c.J.T.T.T.W.T.G.Y.!.T.E.E./.P.W.!.W.G.T.(.^.T.                  ",
"          i i 8 7 2 l y.D.I.E._.J.D.V.G.Q._.Y.T.T.T.G.D.Z.f.f.x.A.Q.W.G.Y.(.^.Y.I._.K.G.G.T.        ",
"        q p i 8 2 4 k u.).~.).E.Q._.Y.T.K.P.P.G.P.T.J.p.@.O.O.o.@.d.K.!.(.(.!.P.P.I.G.T.P.Y.W.      ",
"      r g s 9 u G R D u ! 5.3.4.3.4.4.4.t.c.q.H.I.T.E.:...O.O.O.o. .,.R.(.!.Y.                      ",
"      d x p N $.z.S.M.Z < / z.v.N.B.B.B.D.H.n.G.T.W.!.x.}  .X.X... .[ a.E.Y.Q.^.!.!.!.Y.Y.          ",
"    w b s N $.s.L.~.~.T t u.(.(.Y.T.P.G.G.G.T.Y.Y.T.~.Q.<.[ | | { { [ >.F.G.K.G.T.T.T.T.T.T.G.G.T.  ",
"    b b a L %.z.R.(.N.> < Z 5.^ Q             G.G.K.!.(.T.k.;.` _ _ ' g.P.T.T.T.Y.Y.Y.T.T.T.Y.T.T.  ",
"  a n b v K ] l.R.V.U # 2 < @           Y.T.G.G.T.Q.!.Y.G.Y.T.C.h.j.b.G.E.T.I.T.T.Y.          !.E.Y.",
"  x n b v n L &.2.z < 2 2           ~.!.Q.T.G.T.Y.Y.Y.T.G.!.^.!.T.!.Q.!.Y.Y.P.G.T.T.T.T.E.          ",
"  n n v d s a 0                     ~.~.Y.T.K.P.  !.Y.G.T.^.Y.Q.G.^.Q.T.W.T.T.T.G.T.Y.T.T.Y.W.      ",
"e b b g d                               !.      !.!.Y.G.Q.^.!.W.G.Q.!.G.G.T.G.P.T.G.T.!.!.T.T.T.T.  ",
"a b b v                                         !.(.K.T.Q.!.!.Y.T.W.W.G.G.T.G.G.G.T.G.T.!.!.Y.Y.Y.  ",
"a v v                                           !._.G.T.T.  Y.T.T.!.Y.T.G.T.T.  G.G.Y.T.Y.!.(.      ",
"a v                                               T.G.G.  P H.T.T.!.  G.G.T.Y.    G.Y.!.!.!.(.!.    ",
"f                                                       + - w.G.!.(.    G.T.~.!.      !.(.(.!.      ",
"9                                                       $ $ ; W r.0.      Y.!.(.!.                  ",
"                                                      % % % * $ $ $         !.(.!.                  ",
"                                                      < # & % % $ $ $                               ",
"                                                      < < < # % & % $                               ",
"                                                    2 2 2 2 < < 3 & $                               ",
"                                                    4 4 4 2 2 3 2 <                                 ",
"                                                    4 f a 7 2 2 2 <                                 ",
"                                                  8 k =.] i 2 4 2 <                                 ",
"                                                  8 #.L.-.r 7 8 4                                   ",
"                                                  9 8.R.&.9 i 8                                     ",
"                                                d s R 7.S p i 6                                     ",
"                                                d v x d x s 0                                       ",
"                                              v b b n b d                                           ",
"                                            v b n n x w                                             ",
"                                        r a a x c                                                   "
};
