/* XPM */
static char *e777711502c447c5a6f1200c2f549c86wsfwYZjTXcsYe46t[] = {
/* columns rows colors chars-per-pixel */
"50 50 143 2 ",
"   c None",
".  c #010000",
"X  c #090501",
"o  c #0E0901",
"O  c #140B01",
"+  c #190E01",
"@  c #1A1002",
"#  c #251502",
"$  c #281602",
"%  c #2B1903",
"&  c #331C03",
"*  c #362003",
"=  c #3A2304",
"-  c #422704",
";  c #462904",
":  c #4D2D05",
">  c #522E05",
",  c #4F3005",
"<  c #5C3406",
"1  c #5D3806",
"2  c #623606",
"3  c #663A05",
"4  c #693A05",
"5  c #663F0B",
"6  c #703E07",
"7  c #6D4207",
"8  c #704307",
"9  c #794307",
"0  c #744509",
"q  c #7D4608",
"w  c #774809",
"e  c #7C4B09",
"r  c #664313",
"t  c #66461A",
"y  c #704711",
"u  c #704914",
"i  c #704B1A",
"p  c #894B06",
"a  c #8A4C08",
"s  c #87510A",
"d  c #8C540A",
"f  c #935209",
"g  c #9B5D0A",
"h  c #8C5812",
"j  c #A45B0A",
"k  c #A85D0A",
"l  c #996115",
"z  c #A4620B",
"x  c #AB610B",
"c  c #B2630B",
"v  c #B9660B",
"b  c #B46C0C",
"n  c #B96F0C",
"m  c #BB700C",
"M  c #A56A1A",
"N  c #B56F10",
"B  c #996724",
"V  c #9A6C2F",
"C  c #996D32",
"Z  c #99723D",
"A  c #BA7B26",
"S  c #C46C0C",
"D  c #C96F0C",
"F  c #C5760D",
"G  c #CC710C",
"H  c #CB7A0E",
"J  c #D4760D",
"K  c #D5780D",
"L  c #DB790D",
"P  c #E37E0E",
"I  c #D7810E",
"U  c #DC840F",
"Y  c #D78313",
"T  c #D98514",
"R  c #E5820E",
"E  c #EB850F",
"W  c #E2880F",
"Q  c #EC8A0F",
"!  c #F28B0F",
"~  c #FF970D",
"^  c #FF980F",
"/  c #EA8D10",
"(  c #F58D10",
")  c #F49111",
"_  c #FB9511",
"`  c #FF9911",
"'  c #FF9E1C",
"]  c #C78021",
"[  c #CD8B33",
"{  c #C78B3C",
"}  c #EA992B",
"|  c #FFA224",
" . c #FFA42B",
".. c #FFA82E",
"X. c #FEA630",
"o. c #FFAC3B",
"O. c #DE9D45",
"+. c #C79859",
"@. c #C89A5C",
"#. c #E09F47",
"$. c #EAA84F",
"%. c #FFAF42",
"&. c #FFB24C",
"*. c #EAA954",
"=. c #FFB551",
"-. c #FFB853",
";. c #FEB759",
":. c #FFBA5B",
">. c #C79E67",
",. c #C7A16F",
"<. c #FFBD66",
"1. c #F5BB6D",
"2. c #FFBF69",
"3. c #EAB976",
"4. c #EABA78",
"5. c #F6BD70",
"6. c #FFC26C",
"7. c #FEC374",
"8. c #FDC478",
"9. c #FFC97C",
"0. c #EBC28C",
"q. c #FECC86",
"w. c #FFCF8A",
"e. c #FFD18F",
"r. c #EAC797",
"t. c #EAC798",
"y. c #FFD193",
"u. c #FED49B",
"i. c #FFD9A4",
"p. c #FEDCAD",
"a. c #FFE1BA",
"s. c #FFE2BA",
"d. c #FFE3BC",
"f. c #FFE4BD",
"g. c #FFE6C1",
"h. c #FFE8CA",
"j. c #FFEED3",
"k. c #FFF0D4",
"l. c #FFF0D4",
"z. c #FFF0D8",
"x. c #FFF0D9",
"c. c #FFF1DC",
"v. c #FFF1DC",
/* pixels */
"                                                                                                    ",
"                                        .                 .                                         ",
"                                      . = +             + * .                                       ",
"                                    . ; W g o         o g W ; .                                     ",
"                                  . = Y ` ` d X     X d ` ` T = .                                   ",
"                                  % H ` ^ -.8.e X . w _ ` ' e.[ %                                   ",
"                                + x ` ` ^ &.v.1.1 > E ` ` ` i.g.A @                                 ",
"                                & K _ ` ` ^ <.l.C a ( ` ` ` | a.0.=                                 ",
"                                & K _ ` ` ` ` i.Z p ( ` ` ` ~ -.r.=                                 ",
"                                & K ` ` ` ` ` 9.C a ( ` _ ` ~ o.4.=                                 ",
"                                & L ` ` ` ` ^ -.B p ( ` ` ` ~  .*.=                                 ",
"                                & K _ ` ` ` ` e.Z p ( ` ` ` ` %.0.=                                 ",
"                                & K _ ` ` ` ` ..l a ( ` ` ` _ ' } =                                 ",
"                                & K _ ` ` ` ` ^ g a ! ` ` ` ` ` Q =                                 ",
"                                & K ! _ ` ` ` ` g a E ( ` ` ` ` / =                                 ",
"                                O j E ! ` ` ` ) < > L R ~ ` ` ` m O                                 ",
"                              X & % v E ( ` ) w % % 4 L E _ ` H % = X                               ",
"                            . 7 / 8 % S E ( s % F F % 0 P Q K * 7 / 7 .                             ",
"                          . 1 ) ` ) 1 & D a # b ` ` N # a G = 1 ) ` ) 1 .                           ",
"                        . : / ` ` 7.*.> $ # z ` ` X.w.M # % : / ` ` 8.*., .                         ",
"                        & G ` ` ` 8.v.$.& 9 ) ` ^  .h.u.h & J ` ` ~ 8.l.O.*                         ",
"                        < ! ` ` ` ` y.f.0 c ~ ` ` ^ %.j.@.3 E ` ` ^ ' y.a.r                         ",
"                        < E ` ` ` ^  .p.i c _ ` ` ` ~ 9.>.3 Q ` ` ` ^  .p.t                         ",
"                        1 E ` ` ` ` ' q.i c ) ^ ` ` ` :.+.3 E ` ` ` ` ' q.t                         ",
"                        < E ` _ ` ` ' :.y c _ ` ` ` ^ %.{ 3 E ^ ` ` ` ' ;.r                         ",
"                        < Q ` ` ` ` | u.i c _ _ ` ` ^ 6.,.3 Q ^ ` ` ` | u.t                         ",
"                        < E ` ` ` ` ` X.8 c _ _ ` ` ` | ] 4 E ^ ` ` ` `  .5                         ",
"                        < E ` ` ` ` ` _ 6 c _ ` _ ` ` ^ F 3 E ` ` ` ` ` ` 5                         ",
"                        < R ( _ ` ` ` ` 8 c Q _ ` ` ` ` H 3 R ! ` ` ` ` ` 7                         ",
"                        & S E ( ` _ ` W & q P Q _ ` ` ` d & D E ! ` ` ` Y =                         ",
"                        . ; J E _ ` / : & # f P Q _ ` z # & ; J R _ ` / , .                         ",
"                          . > K E / 1 - U g # j E ! b # g U - > K E Q 1 .                           ",
"                            . 2 K 2 * I ` ` s # x c $ s _ ` T * 2 K 2 .                             ",
"                              X & % H ` ~ -.7.w # # 8 _ ~ ' q.[ % & X                               ",
"                                O k _ ` ^ &.v.1.1 > E ` ` ' i.f.A O                                 ",
"                                & L ` ` ` ` 2.j.C a ( ` ` ~  .a.0.=                                 ",
"                                & L _ ` ` ` ` i.Z p ( ` ` ` ^ -.r.=                                 ",
"                                & K ` ` ` ` ` 9.C p ( ` ` ` ^ o.4.=                                 ",
"                                & K ` ` ` ` ` -.B p ( ` ` ` _  .$.=                                 ",
"                                & K ` ` ` ` ` e.Z p ( _ ` ` ^ %.0.=                                 ",
"                                & K _ ` ` ` ` ..l a ( ` ` ` ` ' } =                                 ",
"                                & K _ ` ` ` ` ` g a ( ` ` ` ` ` Q =                                 ",
"                                & K ( ` ` ` ` ^ g a Q _ ` ` ` ` / =                                 ",
"                                + k E ( ` ` ` ) 1 > L E ` ` ` ` m @                                 ",
"                                  $ v E ) ` _ e . . 8 P ! _ ` H %                                   ",
"                                  . & S E _ d X     . p P ! I = .                                   ",
"                                    . = G f o         o a G - .                                     ",
"                                      . % +             + % .                                       ",
"                                        .                 .                                         ",
"                                                                                                    "
};
