/* XPM */
static char *_8e72cfcb2544f8e8bfc9827e7bb0ac3BQ08gEjtTBn0fDxa[] = {
/* columns rows colors chars-per-pixel */
"44 50 165 2 ",
"   c None",
".  c #3B280E",
"X  c #47360D",
"o  c #523D09",
"O  c #4D3C13",
"+  c #503E12",
"@  c #55400E",
"#  c #5E480D",
"$  c #5D470D",
"%  c #564314",
"&  c #594610",
"*  c #5E4A15",
"=  c #55431A",
"-  c #5C4A1D",
";  c #634D0E",
":  c #614E15",
">  c #655016",
",  c #6B5713",
"<  c #67541D",
"1  c #705B1C",
"2  c #7E6815",
"3  c #77621A",
"4  c #7D671C",
"5  c #7F6819",
"6  c #7C6715",
"7  c #5E4C2E",
"8  c #634F28",
"9  c #675324",
"0  c #6A5721",
"q  c #67522A",
"w  c #6E592E",
"e  c #705D23",
"r  c #725D29",
"t  c #675331",
"y  c #6E5A34",
"u  c #6D5A3C",
"i  c #715E3C",
"p  c #7A6426",
"a  c #79642E",
"s  c #7C6832",
"d  c #75623B",
"f  c #7C6F38",
"g  c #79663B",
"h  c #756344",
"j  c #7B6444",
"k  c #7D6B4B",
"l  c #786946",
"z  c #6C675C",
"x  c #7A766D",
"c  c #7C7A75",
"v  c #846D16",
"b  c #816B1B",
"n  c #8A6F14",
"m  c #8C7415",
"M  c #86711C",
"N  c #8A741D",
"B  c #947B15",
"V  c #90761B",
"C  c #947C1B",
"Z  c #997F1A",
"A  c #836C23",
"S  c #8B7421",
"D  c #877323",
"F  c #937B22",
"G  c #806745",
"H  c #806749",
"J  c #856C4A",
"K  c #886F4C",
"L  c #836A46",
"P  c #83724E",
"I  c #8A714E",
"U  c #857452",
"Y  c #8C7452",
"T  c #8D7A56",
"R  c #8D7B59",
"E  c #917755",
"W  c #927C5A",
"Q  c #9D8215",
"!  c #9B821D",
"~  c #A28616",
"^  c #A48817",
"/  c #AB8D16",
"(  c #A2861D",
")  c #A68A1B",
"_  c #AB8E1B",
"`  c #AE911C",
"'  c #B29317",
"]  c #B3941C",
"[  c #B7981E",
"{  c #BB9B1B",
"}  c #9D8421",
"|  c #A08721",
" . c #A58A22",
".. c #A98E22",
"X. c #A68D29",
"o. c #A88F2C",
"O. c #AD9124",
"+. c #AB912A",
"@. c #B29524",
"#. c #B79922",
"$. c #BC9D23",
"%. c #B39728",
"&. c #B49829",
"*. c #BA9D2A",
"=. c #B99F3B",
"-. c #BFA024",
";. c #BEA02A",
":. c #BEA231",
">. c #C19F1B",
",. c #C4A21C",
"<. c #C9A61C",
"1. c #CDA91C",
"2. c #D2AE1E",
"3. c #DCB51E",
"4. c #E4BC1F",
"5. c #C3A323",
"6. c #C8A725",
"7. c #CBAA24",
"8. c #C5A62A",
"9. c #CBAB2A",
"0. c #D1AE21",
"q. c #D5B123",
"w. c #DBB522",
"e. c #DEB821",
"r. c #C7A931",
"t. c #CCAD33",
"y. c #E5BD22",
"u. c #E9C11F",
"i. c #ECC321",
"p. c #F0C722",
"a. c #F2C922",
"s. c #998846",
"d. c #8F8058",
"f. c #91865A",
"g. c #99805E",
"h. c #A5975F",
"j. c #A39457",
"k. c #8F8063",
"l. c #9C8364",
"z. c #9A906A",
"x. c #9A8E78",
"c. c #938873",
"v. c #A18967",
"b. c #A58D6C",
"n. c #A8906E",
"m. c #A19566",
"M. c #A3967C",
"N. c #848381",
"B. c #9E9282",
"V. c #929292",
"C. c #AAA48C",
"Z. c #B8AF8A",
"A. c #B0A38C",
"S. c #A3A29D",
"D. c #B3A89A",
"F. c #A9A6A1",
"G. c #A5A5A3",
"H. c #BEB5A7",
"J. c #C6BCAF",
"K. c #C3BAAC",
"L. c #C8BFB2",
"P. c #D3CABE",
"I. c #D5CDC1",
"U. c #D9D1C6",
"Y. c #D8D0C5",
/* pixels */
"                                                                                        ",
"                                                                                        ",
"                                                                                        ",
"                                                                                        ",
"                                                                                        ",
"                                                                                        ",
"                                                                                        ",
"                                                                                        ",
"                                  n.g.Y J I J I J W b.                                  ",
"                              b.Y P J I L I J I J I I K g.                              ",
"                            E K Y K J T T k h k U Y I I J K n.                          ",
"                        b.J K K Y l 8 , 4 B M M v < u E J I I v.                        ",
"                        K J I T q 2 V B ! / } ! _ C N e k I I K v.                      ",
"                      Y K L U 0 Z Z B V } ' } } ` ! } +.n h J K I v.                    ",
"                    W K K Y 9 F ' } C B } Z.} } ` } | ] ' m k K K j                     ",
"                    J K K q b | ' ! C ! } f s.} ` ! X.' ' { 5 T K h l.                  ",
"                  l.L I J n | | ` } ! ! m.] X.) ..! +.]  .` ` t I g I                   ",
"                  T J I q )  . .' } ! o.D { ..h...| +.....X.] v I j J                   ",
"                  J J I 3 { _ X.' | d S.u d i c.h s #.......O.~ P j J                   ",
"                  J L Y 6 { ] @.]  .d.K.Y.B.K.L.J.l [ ..+. .O.{ i G K                   ",
"                  L J U v >.{ { { ( M.U.U.. . Y.U.T { O... .@.>.y L K                   ",
"                  J J T v >.[ >.] ! A.P.U.D.D.U.U.f.{ O.O.( O.,.y L K                   ",
"                  J J W z.>.>.,.@.Q x.J.P.P.P.I.J.U { O.O.) @.,.y J K                   ",
"                  L J T c ,.<.<.O.! ( M N C Q N ! F { O.O.) %.,.h K K                   ",
"                  J J Y N.<.<.1.@.~ ) ....[ <.O.,.*.<.O.@.) #.#.k J K                   ",
"                  k J I 4 1.{ 6.@.~ ) & b @.1.@.#.&.<.@.@.` < V U K J                   ",
"                    K I p ; o ) ..~ & O O v 1.*.4 7 n ] %.> = O U I K                   ",
"                    K I 7 + o - S , X O O O ( b O = # 3 5 O = O U Y Y                   ",
"                    K I u % >.= = + X ) V + > @ O { ; O O O &.4 T Y K                   ",
"                    K I k ` 1.*.1 + Z ] @.] : $ @.1.6.4 %  .;.F W Y K                   ",
"                    K I U ..2.$.*.#.` ' #.#.#.{ *.5.7.$.:.C.:.S W Y K                   ",
"                    K I T | 2.-.r.#.` ] #.#.#.e.5.$.w.#.G.V.C.A Y Y H                   ",
"                    J K R ! 2.5.r.$.` ] #.$.$.e.q.$.3.-.x G.j.p Y Y                     ",
"                    L K E f.0.,.t.-.[ ] [ $.$.e.2.-.y.6.*.} 5.r Y Y                     ",
"                    j K T z 5.5.t.;.[ { #.-.-.y.w.$.e.9.8.[ 8.w K Y                     ",
"                    j K I z 5.6.9.-.[ [ { $.5.y.6.5.4.q.6.#.-.y K I                     ",
"                      I I p 5.7.5.8.[ [ $.$.5.i.0.5.4.4.9.$.5.i J I                     ",
"                      K I a 5.w.-.6.{ { -.-.5.i.9.$.u.u.9.5.$.h K K                     ",
"                      I I g 5.i.5.9.{ { ,.5.6.i.6.,.y.4.9.5.[ U I J                     ",
"                      J I k 6.i.5.7.{ { -.6.6.i.6.6.w.i.9.,.] U Y L                     ",
"                      K I U 7.p.6.6.,.{ ,.6.7.a.6.,.w.i.9.,.` T Y j                     ",
"                      K K R 0.a.7.6.,.{ 6.9.e.a.6.5.e.i.9.6...T j J                     ",
"                                                                                        ",
"                                                                                        ",
"                                                                                        ",
"                                                                                        ",
"                                                                                        ",
"                                                                                        ",
"                                                                                        ",
"                                                                                        "
};
