/* XPM */
static char *d04428cffb0748f29d3ec22ac56d1353cc2DUFcCiXIlQt4w[] = {
/* columns rows colors chars-per-pixel */
"50 50 228 2 ",
"   c None",
".  c #030506",
"X  c #0A0B0B",
"o  c #070809",
"O  c #131313",
"+  c #191913",
"@  c #1B1507",
"#  c #332D11",
"$  c #282A29",
"%  c #373626",
"&  c #353838",
"*  c #0A2425",
"=  c #473614",
"-  c #22441E",
";  c #274A25",
":  c #367034",
">  c #6C540F",
",  c #776109",
"<  c #7C6818",
"1  c #4A443D",
"2  c #417C2D",
"3  c #7B7B2A",
"4  c #0C3461",
"5  c #1E547E",
"6  c #59524B",
"7  c #7C4644",
"8  c #5D675F",
"9  c #74706C",
"0  c #C0381A",
"q  c #815D0C",
"w  c #B8581B",
"e  c #A74D1E",
"r  c #986D1A",
"t  c #997617",
"y  c #916F0F",
"u  c #B7651B",
"i  c #9C5837",
"p  c #B15C25",
"a  c #AE5824",
"s  c #9E7024",
"d  c #BE732D",
"f  c #B76B32",
"g  c #C95319",
"h  c #D17119",
"j  c #C87933",
"k  c #9F6248",
"l  c #B17B52",
"z  c #867167",
"x  c #867469",
"c  c #89776B",
"v  c #8B796E",
"b  c #887367",
"n  c #947869",
"m  c #8E7D72",
"M  c #927F73",
"N  c #A1706C",
"B  c #3E8931",
"V  c #498B37",
"C  c #598C2F",
"Z  c #668B35",
"A  c #68A63E",
"S  c #54A135",
"D  c #468742",
"F  c #748F54",
"G  c #76A84D",
"H  c #7D837A",
"J  c #988014",
"K  c #BCA21F",
"L  c #94862C",
"P  c #AD9D36",
"I  c #81A030",
"U  c #AFA82E",
"Y  c #C98D14",
"T  c #F09515",
"R  c #FDB50F",
"E  c #FDBB0C",
"W  c #EDAB17",
"Q  c #F2AD14",
"!  c #F6AB15",
"~  c #E9B51A",
"^  c #F4B315",
"/  c #F4B31A",
"(  c #F8B915",
")  c #EFAE0E",
"_  c #D58F34",
"`  c #DAAE32",
"'  c #E7AC23",
"]  c #E7B53A",
"[  c #F1B12D",
"{  c #CEB41E",
"}  c #FDCA0B",
"|  c #FDC709",
" . c #FAD40B",
".. c #F3C21D",
"X. c #F8C417",
"o. c #FDD914",
"O. c #F4C627",
"+. c #ECCA30",
"@. c #FAE539",
"#. c #849752",
"$. c #A69859",
"%. c #969B68",
"&. c #8B8878",
"*. c #918176",
"=. c #95867B",
"-. c #97887E",
";. c #998A7F",
":. c #988576",
">. c #8A8F6E",
",. c #B28D75",
"<. c #8FA56E",
"1. c #BDA76C",
"2. c #B1AD78",
"3. c #89A557",
"4. c #DA944D",
"5. c #D2904D",
"6. c #D6B250",
"7. c #E8B958",
"8. c #E2BC42",
"9. c #C39060",
"0. c #CFB76C",
"q. c #DCBB69",
"w. c #CAB576",
"e. c #E9B564",
"r. c #B2CD7E",
"t. c #D7C959",
"y. c #F0D950",
"u. c #F8E842",
"i. c #DDC265",
"p. c #D6C772",
"a. c #EAC96D",
"s. c #2D689C",
"d. c #A87E84",
"f. c #658581",
"g. c #558DB5",
"h. c #69A0C7",
"j. c #9A8D82",
"k. c #9D9186",
"l. c #9F9389",
"z. c #9A9A83",
"x. c #929595",
"c. c #A58E81",
"v. c #A1958B",
"b. c #A49A8F",
"n. c #A89987",
"m. c #A59C92",
"M. c #A99E93",
"N. c #B79C8E",
"B. c #A9A58A",
"V. c #A9A096",
"C. c #ACA49B",
"Z. c #AFA89F",
"A. c #B6A599",
"S. c #B6B499",
"D. c #B5A384",
"F. c #AFA8A0",
"G. c #B3ACA3",
"H. c #BBABA3",
"J. c #B7B2A9",
"K. c #BAB6AC",
"L. c #B8B6A8",
"P. c #A7B8BB",
"I. c #BDBAB2",
"U. c #A4BEAA",
"Y. c #98B1B6",
"T. c #C5B58D",
"R. c #C6AA9C",
"E. c #C5BC95",
"W. c #CBB294",
"Q. c #C7AFA3",
"!. c #CAB3A7",
"~. c #D1B9AC",
"^. c #C1BEB4",
"/. c #CCBBB3",
"(. c #D4BEB4",
"). c #B5C39F",
"_. c #BFC3AD",
"`. c #D3CA94",
"'. c #E8D097",
"]. c #FEE79E",
"[. c #C4C2BA",
"{. c #C7C8BD",
"}. c #D6C6B9",
"|. c #E7D5AB",
" X c #FCE8AA",
".X c #809EC3",
"XX c #95B6DE",
"oX c #9CBADE",
"OX c #9BB8D9",
"+X c #8AAFD2",
"@X c #A5BBC9",
"#X c #9CBCE1",
"$X c #95B8E1",
"%X c #97C1DD",
"&X c #B6C8D5",
"*X c #A4C2E3",
"=X c #A9C6E6",
"-X c #ACCAE5",
";X c #ADC9E8",
":X c #A8C5E8",
">X c #B3CEEA",
",X c #B1CEE6",
"<X c #B6D1EA",
"1X c #B9D2EC",
"2X c #BFDBEB",
"3X c #CBCBC3",
"4X c #C5C9C0",
"5X c #DCCEC6",
"6X c #D4C9C2",
"7X c #CED1C9",
"8X c #C1D2C2",
"9X c #D1D3CB",
"0X c #DED2CB",
"qX c #DCDACC",
"wX c #D8D9D2",
"eX c #E5DBCF",
"rX c #E3DCD6",
"tX c #E4DED8",
"yX c #DBE6DC",
"uX c #E6E1DC",
"iX c #E8E3DE",
"pX c #C4DEED",
"aX c #D6E0E6",
"sX c #ECEDEB",
"dX c #E9E8E4",
"fX c #EEF0EF",
"gX c #F1F6F6",
"hX c #EFF4F3",
/* pixels */
"                                                                                                    ",
"                                                                                                    ",
"                                                                                                    ",
"                                                  o X                                               ",
"                                                  X O .                 X                           ",
"                                                        o           . o + X                         ",
"                                                                    X                               ",
"                                                                                                    ",
"                                                                                                    ",
"                                                                                                    ",
"                                                                                                    ",
"                                                                Y O.{                               ",
"                                                  U i.'.a.W W ' '.eX'.P                             ",
"                                                  1.aXXX&X7.T e.+Xh.=X`.                            ",
"                                                  '.h.4 s.w.T 9.5 * s.'.                            ",
"                                                  a.g.# 3 t.y.y.U 3 f.i.                            ",
"                                    (             O.6.~  .@.@.@.o.| | R                             ",
"                                  / /             R E }  . . . .| | R R           XXoX#X-X*X        ",
"                            *X%XOX8./ (           R ! [ O.| } } [ a.[ ! R     XXoX#X*X;XpX,X        ",
"                          *X2X<XoXS./ O.          R ! 4.W.].]. X|.c.T R     #X#X*X;X>X>X>X1X=X      ",
"                          -X1X<XW.] W ..0.          E T i N d.N 7 u R X.P.#X#X;X>X1X1X1X1X>X-X      ",
"                          <X1X{.] R / ^ X.6.@X        | ) h g g Y E X.@X$X*X>X>X>X>X1X1X1X1X-X      ",
"                          <X1Xq.! / / ! ( / U.XX          } R       $X#X*X=X;X>X>X1X1X>X1X>X*X      ",
"                          ;X1Xq.( / ! W Q / [.oX$X      # ,       XXXX#X*X;X>X>X>X1X1X1X1X;X        ",
"                          :X1X&Xw.8.W Q W ^ O.p.P.P.  X o . . o h.+XXX*X=X=X=X=X;X;X;X1X;X          ",
"                            =X1X1X&XE.0.T.E.8.X...` % X o X o . 8 Y.XX#X#X*X*X:X*X=X-X*X            ",
"                              *X;X;X=X=X*X*X@XI.w.$.+ o O O X . > O.S.#XoX#XoXoXoXoX                ",
"                                  oXoX#X#XoXoX#X#X+X$ . O O o . # } O.6.                            ",
"                                                  q.s @ . . . = Y   ~ E                             ",
"                                        w w     K +.^ Y , > t ) } W ` ( (                           ",
"                                      f a w d = $ = > q y t y y , , Y ~ ^ h                         ",
"                                    m.M.,.f d J > = % & $ & & % $ , ~ ) ~ T w                       ",
"                                    B.F.A.A.T.+.+.i.W.3XI.9X7X3XE.' / / / W f                       ",
"                                    <.G.G.L.I.p.`.9XwXwXwXwXwX7X{.t./ ^ W ` M.                      ",
"                                    <.V.Z.G.K.^.[.3X7X7X7X9X7X3X3X^.W.6.w.D.M.                      ",
"                                    G m.C.G.K.I._.[.{.3X3X3X3X{.^.I.K.G.F.M.m.                      ",
"                                    G z.V.Z.G.J.I.I.^.[.[.[.^.^.I.K.G.F.C.m.v.                      ",
"                          j a k n   A >.b.V.C.J.L.K.I.K.I.I.I.K.K.G.F.C.m.l.                        ",
"                      4.5.1.$.%.j.    F l.b.S.S.G.G.J.J.K.K.G.G.F.F.M.m.v.j.                        ",
"                    4.5.,.V.B.3.#.    F -.2.B.m.V.C.Z.Z.Z.F.Z.Z.C.M.m.l.j.j.                        ",
"                4.4.4.9.V.m.j.=.G     V 3.%.j.l.b.m.M.M.M.M.M.m.m.l.k.j.-.                          ",
"            j _ 5.5.,.M.V.z.-.*.F S   B A *.=.;.j.l.v.v.b.v.v.v.j.j.-.M M                           ",
"        e p f f l n.V.m.z.-.*.c   Z C V I n M *.j.m j.j.j.j.j.-.-.*.m m                             ",
"      i l N ,.c.,.l.l.k.=.*.x ;.w.w r C u   B.m v m m *.M M M M m v -.                              ",
"      M.k.j.k.k.j.j.=.:.m z v /.}.$.Z : #.r.qXH.m z x c b b b b c M.0XsX                            ",
"  9XF.m.C.A.j.M M m v c z M ;.9 *.$.L C V L.5X(.H.c.M b z z v ;.A.}.5XrXsXgX                        ",
"hXdXrX6XQ./.!.N.c.:.N ;.,.N.1 + 2 e 0 L ; 6 H.~.~.~.Q.R.A.R.Q.~.(.}.0XtXfX                          ",
"gXsXtX0X6X}.(.~.!.Q.Q.R.b 6 ; ; : < t C - o $ 1 9 6X5X6X5X5XeXiXrXdXsX                              ",
"  gXfXdXiXrX0X5X}.}.(.(.!.H.Q.m.j.&.<.V : f.9 9 x.                                                  ",
"          fXdXdXdXdXtXtXtXtXtXtXtXdXiX&X).aX                                                        "
};
