/* XPM */
static char *_15a069610bc4738c8b26afbe8e32b03SAkgX9P8tGHvLKOg[] = {
/* columns rows colors chars-per-pixel */
"50 50 222 2 ",
"   c None",
".  c #030506",
"X  c #0B0B0B",
"o  c #060708",
"O  c #16150B",
"+  c #121213",
"@  c #1B1B16",
"#  c #100F0E",
"$  c #221E10",
"%  c #241F0A",
"&  c #1E201F",
"*  c #2B2507",
"=  c #362D0A",
"-  c #292516",
";  c #332E1C",
":  c #39301A",
">  c #001B3F",
",  c #393A30",
"<  c #493714",
"1  c #4F3C20",
"2  c #284E28",
"3  c #53430C",
"4  c #574519",
"5  c #564A19",
"6  c #67570B",
"7  c #7A5B0E",
"8  c #634D15",
"9  c #6B5217",
"0  c #7A5A1A",
"q  c #7A6410",
"w  c #595724",
"e  c #635522",
"r  c #747C28",
"t  c #48712F",
"y  c #133764",
"u  c #124171",
"i  c #7B7C5C",
"p  c #707665",
"a  c #4B4D4C",
"s  c #B13924",
"d  c #8A3437",
"f  c #86560F",
"g  c #886B0D",
"h  c #8C750A",
"j  c #887813",
"k  c #8D6A16",
"l  c #A77C15",
"z  c #B57312",
"x  c #9D5622",
"c  c #807E29",
"v  c #A07331",
"b  c #CD7214",
"n  c #E17218",
"m  c #8D5555",
"M  c #A45F40",
"N  c #896D6D",
"B  c #C57958",
"V  c #3E8330",
"C  c #548A30",
"Z  c #72A32F",
"A  c #5E8D49",
"S  c #6F8C5D",
"D  c #6D8C7C",
"F  c #9E8106",
"G  c #BC9C0C",
"H  c #B38315",
"J  c #AB9918",
"K  c #BC9716",
"L  c #AE8D0E",
"P  c #98852E",
"I  c #B19B2E",
"U  c #ADA02B",
"Y  c #DA9916",
"T  c #CA9010",
"R  c #E99E15",
"E  c #F49517",
"W  c #EE8B18",
"Q  c #D2A70B",
"!  c #D6A816",
"~  c #D3B707",
"^  c #F5AC0F",
"/  c #E8BA0B",
"(  c #FCB60E",
")  c #FDBC0D",
"_  c #F3B80D",
"`  c #EEA413",
"'  c #EDAA17",
"]  c #F2A415",
"[  c #F2AC14",
"{  c #FCAE13",
"}  c #F3AE1A",
"|  c #F5A517",
" . c #EBB515",
".. c #F4B314",
"X. c #FDB512",
"o. c #F6BD14",
"O. c #FCBD13",
"+. c #F5B51C",
"@. c #F5BC1B",
"#. c #FDBC1A",
"$. c #F79D24",
"%. c #D6B32E",
"&. c #ECA927",
"*. c #F6A324",
"=. c #EEB822",
"-. c #F4B422",
";. c #E8B33A",
":. c #EEB335",
">. c #FEC40C",
",. c #FCCC0B",
"<. c #FBC807",
"1. c #FCD406",
"2. c #FAD20B",
"3. c #FCDD08",
"4. c #EFC31C",
"5. c #F6C312",
"6. c #F9C512",
"7. c #F4C31A",
"8. c #F8CA19",
"9. c #FBD717",
"0. c #E1C006",
"q. c #F7C623",
"w. c #FADA24",
"e. c #E9C535",
"r. c #EFC021",
"t. c #F9E334",
"y. c #A38143",
"u. c #969C7A",
"i. c #BEBC78",
"p. c #DEAB56",
"a. c #D0B550",
"s. c #E3AD45",
"d. c #E8B65B",
"f. c #EEBE4C",
"g. c #D99971",
"h. c #DABE67",
"j. c #D4B97C",
"k. c #CDB563",
"l. c #E1B873",
"z. c #B7C154",
"x. c #CDC45F",
"c. c #E7C248",
"v. c #EFC94F",
"b. c #F6E756",
"n. c #DCC163",
"m. c #D7C67A",
"M. c #CFC270",
"N. c #ECC577",
"B. c #EFCF72",
"V. c #154881",
"C. c #216199",
"Z. c #2F73A9",
"A. c #6F8B8F",
"S. c #78ACCF",
"D. c #4C92C5",
"F. c #8C8C86",
"G. c #919984",
"H. c #9BA588",
"J. c #B4AC95",
"K. c #99AFA0",
"L. c #ABB6AB",
"P. c #B6BBA6",
"I. c #ABB9B9",
"U. c #BDA5A8",
"Y. c #CDAD9D",
"T. c #CFB592",
"R. c #CEB1A3",
"E. c #D3BDB2",
"W. c #D2B7A4",
"Q. c #BCC2AA",
"!. c #D4C18B",
"~. c #C9C59B",
"^. c #D7C197",
"/. c #CDCB8B",
"(. c #E6C897",
"). c #F1D288",
"_. c #D7C4BA",
"`. c #D4C3B3",
"'. c #E8D6A8",
"]. c #E4D1AF",
"[. c #F8E8B6",
"{. c #96B5DE",
"}. c #98B6DC",
"|. c #9BBADE",
" X c #9DBAD4",
".X c #8CB5D0",
"XX c #A8BAC6",
"oX c #A6BFDA",
"OX c #9BBCE2",
"+X c #95B6E2",
"@X c #8DB5E1",
"#X c #A1BEE1",
"$X c #BBC8CB",
"%X c #B8CBDC",
"&X c #A7C0CF",
"*X c #9FC1E4",
"=X c #A4C2E4",
"-X c #AAC6E6",
";X c #ADCBE4",
":X c #ACCAE9",
">X c #B2CEE5",
",X c #B3CEEA",
"<X c #B6D1EA",
"1X c #B9D2EC",
"2X c #B9D4E9",
"3X c #C2C9C7",
"4X c #DCCDC4",
"5X c #C6D4C7",
"6X c #DED4CD",
"7X c #D7D0CA",
"8X c #E5D9C8",
"9X c #E2DBD4",
"0X c #E5DFDA",
"qX c #E0D7D0",
"wX c #E6E2DD",
"eX c #F6EACA",
"rX c #C4DDEB",
"tX c #CCE1ED",
"yX c #EBECE9",
"uX c #E8E6E2",
"iX c #EFF3F2",
"pX c #F3FAFB",
/* pixels */
"                                                                                                    ",
"                                                                                                    ",
"                                    X + o                                                           ",
"                                      + o                                                           ",
"                                          o                                                         ",
"                                          #                                                         ",
"                                                          . . # + .                                 ",
"                                                        X     + +                                   ",
"                                                                                                    ",
"                                                                                                    ",
"                              U %.8.                                                                ",
"                            P j.].8X(.:.! ! r.                                                      ",
"                            M.tX.XS.;X(.| R } ;.N.B.e.J                                             ",
"                          2.'.D.y > C.Q.E W d.5X%XtX6Xa.r                   }.}.                    ",
"                            n.A.w 6 S x.*.*.K.C.u Z.2X~.F           +X+X|.OX=X<X>X|.                ",
"                          X.) o.2.3.t.b.b.b.z.w @ u *XB.        {.}.P.I.=X=X:XrXrX-X#X              ",
"                        { X.( ) <.2.9.9.t.t.w.,.K D /.q.      {.+XP.=.;.$X,X,X,X1X1X-X              ",
"              } O.      X.{ | d.q.<.,.2.2.2.,.,.<.5.O.    {.|.OX=Xm.-.} T.1X1X1X1X1X:X              ",
"          ..] } @.      >.( ] B `.).t.q.,.,.6.r.+.( {   +X{.OX:X>Xc.@.s.3X1X1X1X1X<X>X              ",
"          +.+.' 7.        >.O.b m Y.9XeX[.'.^.g.*.{ -.I.OX-X,X%Xm.7. .s.h.3X1X1X1X2X;X              ",
"          [ ..[  .5.5.      >.( n s d m N m M W ( _ k.|.-X-XQ.c.5...+.+.[ d.3X<X1X2X#X              ",
"      [ +.+.....[ ..O.          ) E n n b b ^ 7.e.i.&X*X*X-Xn.) ..' ..} ..[ m.2X2X=X                ",
"        ..} [ o.@.[ [                   Q G k u..X.XOX*X:X$Xn.^ ` ] [ +.@.+.T.2X=X                  ",
"        ..+.[ ....] [ 6.8.q.          . # o O e i L.I.Q.M.e.7. .' [ ' ;.h.P.oXOX                    ",
"                ]       O.7.o.5.6./ 3 X o . 6 5._ @.4.@.=.a.!.I.P.J.J.XXOX+X                        ",
"                                    + o X + @ < 3 w J.P.I.{.|.#X=X=X=XOXOXOX|.{.                    ",
"                                    X X X + # o . < k.n.m.~.&X;X:X:X<X:X:X:X=X#X*X}.                ",
"                                      X . . . X < b >.<.~ h , A.<X<X:X<X1X,X,X>XrX>X                ",
"                                        7 0 f z R ( Q g * X = J /.2X2X2X1X1X<X<X2X;X                ",
"                                        w.-.{ Y l 8 O X = h 0.3.w.$X<X2X1X1X1X2X<X=X                ",
"                                      U I 0 4 ; @ - 8 L / 1.1.1.~ H.,X,X1X1X2X<X;X                  ",
"                                      @ @ - 1 0 l ` ) >.<.<.~ q * p <X<X<X,X;X=X                    ",
"                                      j J ! } { X.O.O...T 6 * * F %.                                ",
"                                      3.3.2.#.[ ] Y k 3 - = g / ,.                                  ",
"                                        ~ G H 0 1 ; : 9 H ' 6.6.6.                                  ",
"                                          @ ; 5 0 H R X.X.X.X.T l                                   ",
"                                            G _ 6.,.O.[ Y l 8 -                                     ",
"                                                5.8.H 9 < ; &                                       ",
"                                              7.8.5.    K !  .                                      ",
"                                              q.6.        #.@.5.5.                                  ",
"                                              7.5.          O.5.>.5.[ [                             ",
"                                              o.5.              ....[ ....                          ",
"                                              o.6.o.            ^ 5.6.@.`                           ",
"                                              ..5.5.            5.1.8.-.R                           ",
"                                            5.) _ [ `           8.2.7.' &.          C C Z           ",
"                            yXyXuXwX0XN.r.2.2.2.6...[ f.4X4X6X^.4._ } &.].0X0XuXyX^.v r P           ",
"                  pXiXyXuX9X6X4X4X_.W.&...7.7.-.+.} ..p.Y.Y.Y.Y.p.&.s.T.E.E._.4XF.u.y.C A 5XpX      ",
"                  pXiXyXuX0XqX6X4X_._.l.:.-.*.&.&.s.j.R.R.Y.R.R.R.T.W.E.E.4XJ.N 2 t x c 2 a F.      ",
"                              yXuXuXwX0X8X'.'.].].qXqXqXqXqXqXqXqX9X9X0X0XwX7X3XL.    V 2           ",
"                                                                                                    "
};
