/* XPM */
static char *result[] = {
/* columns rows colors chars-per-pixel */
"50 50 188 2 ",
"   c #010100",
".  c #0B0403",
"X  c #060A04",
"o  c #090D05",
"O  c #0C0C0B",
"+  c #130505",
"@  c #170C06",
"#  c #1C0B05",
"$  c #160709",
"%  c #1D0609",
"&  c #1C0A0A",
"*  c #1B0407",
"=  c #0B1306",
"-  c #0E1608",
";  c #0E1A09",
":  c #12130A",
">  c #131D0A",
",  c #161205",
"<  c #141414",
"1  c #1D1D1D",
"2  c #25070A",
"3  c #220B0D",
"4  c #280C0F",
"5  c #2A070B",
"6  c #3A0A0F",
"7  c #33080D",
"8  c #2C140D",
"9  c #31150C",
"0  c #371D0F",
"q  c #2B0D11",
"w  c #310E12",
"e  c #3C0F15",
"r  c #241B10",
"t  c #3B1217",
"y  c #3F1218",
"u  c #14220C",
"i  c #19250D",
"p  c #16290E",
"a  c #1C2B0F",
"s  c #1D2D10",
"d  c #152910",
"f  c #1D3312",
"g  c #1E3815",
"h  c #29260A",
"j  c #312D0C",
"k  c #36310E",
"l  c #202F11",
"z  c #223513",
"x  c #253D16",
"c  c #293C16",
"v  c #233F18",
"b  c #232323",
"n  c #2B2D2C",
"m  c #252826",
"M  c gray22",
"N  c #373538",
"B  c #4F1D0B",
"V  c #450D16",
"C  c #490D18",
"Z  c #530F18",
"A  c #411E14",
"S  c #441319",
"D  c #4B151C",
"F  c #401117",
"G  c #55151D",
"H  c #5A151E",
"J  c #55181F",
"K  c #61131D",
"L  c #5E230F",
"P  c #482214",
"I  c #582A16",
"U  c #45381F",
"Y  c #5D3418",
"T  c #60220D",
"R  c #6B2B14",
"E  c #7D2E13",
"W  c #6C391F",
"Q  c #5B1B22",
"!  c #571920",
"~  c #631420",
"^  c #6B1722",
"/  c #621C25",
"(  c #6C1923",
")  c #691E28",
"_  c #731C26",
"`  c #731B28",
"'  c #781D29",
"]  c #75222C",
"[  c #7D232E",
"{  c #69392B",
"}  c #713721",
"|  c #7A3B24",
" . c #7D2631",
".. c #254116",
"X. c #2B4117",
"o. c #2C4418",
"O. c #2B4B1A",
"+. c #274519",
"@. c #31471A",
"#. c #334C1C",
"$. c #2E521D",
"%. c #33541E",
"&. c #3A541E",
"*. c #39591F",
"=. c #345D21",
"-. c #3B5B21",
";. c #395520",
":. c #376224",
">. c #3A6525",
",. c #3D6926",
"<. c #3E6B28",
"1. c #3B6728",
"2. c #655D1A",
"3. c #494D22",
"4. c #405D22",
"5. c #525327",
"6. c #63522D",
"7. c #436424",
"8. c #436B26",
"9. c #4A6B27",
"0. c #426E29",
"q. c #496D28",
"w. c #486526",
"e. c #45722A",
"r. c #4B742A",
"t. c #4E7B2D",
"y. c #447127",
"u. c #51752B",
"i. c #547D2E",
"p. c #597F2F",
"a. c #4D4F4E",
"s. c #59595A",
"d. c #6B6C6C",
"f. c #7C7B7C",
"g. c #883515",
"h. c #9A3817",
"j. c #81212E",
"k. c #832431",
"l. c #8A2533",
"z. c #8D2A36",
"x. c #872833",
"c. c #942A37",
"v. c #952C39",
"b. c #9B2E3C",
"n. c #8E4428",
"m. c #974424",
"M. c #B64621",
"N. c #BB5029",
"B. c #B85A37",
"V. c #CB4F24",
"C. c #D4562A",
"Z. c #C75F39",
"A. c #D76339",
"S. c #F26B39",
"D. c #ED7345",
"F. c #FA7543",
"G. c #53812E",
"H. c #59822F",
"J. c #558431",
"K. c #5C8531",
"L. c #5D8B33",
"P. c #5F9034",
"I. c #608E34",
"U. c #649336",
"Y. c #689637",
"T. c #689738",
"R. c #6B9C39",
"E. c #679837",
"W. c #6EA03B",
"Q. c #D0BD36",
"!. c #80807F",
"~. c #7F8180",
"^. c #878687",
"/. c #8F8E8F",
"(. c #8D908D",
"). c #9FA39F",
"_. c #A4A5A5",
"`. c #ACACAC",
"'. c #A6A9A6",
"]. c #AFB0AF",
"[. c #BBBBBB",
"{. c #C3C4C3",
"}. c gray79",
"|. c #D2D3D2",
" X c #DDDEDD",
".X c #EBECEB",
"XX c #E4E6E4",
"oX c None",
/* pixels */
"oXoXoXoXoXoXoXoXoXoXoXoX  9 8       0 D.|   oXoXoXoXoXoXoXoXoXoXoXoXoXoXoXoXoXoXoXoXoXoXoXoXoXoXoXoX",
"oXoXoXoXoXoXoXoXoXoXoXoX  P B.8     L F.}   oX    oXoXoXoXoXoXoXoXoXoXoXoXoXoXoXoXoXoXoXoXoXoXoXoXoX",
"oXoXoXoXoXoXoXoXoXoXoXoXoX  m.m.    E C.8             oXoXoXoXoXoXoXoXoXoXoXoXoXoXoXoXoXoXoXoXoXoXoX",
"oXoXoXoXoXoXoXoXoXoXoX      9 g.+   E L     . % 4 $     oXoXoXoXoXoXoXoXoXoXoXoXoXoXoXoXoXoXoXoXoXoX",
"oXoXoXoXoXoXoXoXoXoX  & A +   . k h .   3 D H K ` [ D +   oXoXoXoXoXoXoXoXoXoXoXoXoXoXoXoXoXoXoXoXoX",
"oXoXoXoXoXoXoXoXoXoX  W A.R   k Q.2.# # 3 k.b.k.^ _ v.] 3   oXoXoXoXoXoXoXoXoXoXoXoXoXoXoXoXoXoXoXoX",
"oXoXoXoXoXoXoXoXoXoX  @ 9 + + , j @ h.V.P w v.b.c._ ' b.x.q   oXoXoXoXoXoXoXoXoXoXoXoXoXoXoXoXoXoXoX",
"oXoXoXoXoXoXoXoXoXoXoX  . I M.T   . E S.Z.# [ b.b.c.` l.b.[ +   oXoXoXoXoXoXoXoXoXoXoXoXoXoXoXoXoXoX",
"oXoXoXoXoXoXoXoXoXoXoX  # n.N.B + . . I } $  .b.b.b.l.k.b.b.D   oXoXoXoXoXoXoXoXoXoXoXoXoXoXoXoXoXoX",
"oXoXoXoXoXoXoXoXoXoXoX      . . C V +   . D v.b.b.b.b.b.b.b.k..   oXoXoXoXoXoXoXoXoXoXoXoXoXoXoXoXoX",
"oXoXoXoXoXoXoXoXoXoXoXoX      V j.c.[ ` ` c.b.b.b.b.b.b.b.b.v.t   oXoXoXoXoXoXoXoXoXoXoXoXoXoXoXoXoX",
"oXoXoXoXoXoXoXoXoXoXoXoXoX  + K c.b.b.b.b.b.b.b.b.b.b.b.b.b.b./   oXoXoXoXoXoXoXoXoXoXoXoXoXoXoXoXoX",
"oXoXoXoXoXoXoXoXoXoXoXoXoX  % ^ v.b.b.b.b.b.b.b.b.b.b.b.b.b.b. ..   oXoXoXoXoXoXoXoXoXoXoXoXoXoXoXoX",
"oXoXoXoXoXoXoXoXoXoXoXoXoX  % ( b.b.b.b.b.b.b.b.b.b.b.b.v.z.b.z.3   oXoXoXoXoXoXoXoXoXoXoXoXoXoXoXoX",
"oXoXoXoXoXoXoXoXoXoXoXoXoX  * ^ / Q ] z.b.l. .b.v.b.b. .t w v.b.t   oXoXoXoXoXoXoXoXoXoXoXoXoXoXoXoX",
"oXoXoXoXoXoXoXoXoXoXoXoX    + V F . . q  .' ~ l.`  .Q $   4 ] b.D     oXoXoXoXoXoXoXoXoXoXoXoXoXoXoX",
"oXoXoXoXoXoXoXoXoXoXoXoX      2 + .     . y ~ ( V %   . + w  .b.F     oXoXoXoXoXoXoXoXoXoXoXoXoXoXoX",
"oXoXoXoXoXoXoXoXoXoXoXoXoX    6 G ) Q D S Q [ ~ ! D / `  .v.b.v.q     oXoXoXoXoXoXoXoXoXoXoXoXoXoXoX",
"oXoXoXoXoXoXoXoXoXoXoXoXoX    5 K  .Q D S S S t D ! ! / ! ] b.c.q     oXoXoXoXoXoXoXoXoXoXoXoXoXoXoX",
"oXoXoXoXoXoXoXoXoXoXoXoXoXoX  . Z V . O 1 m n n b < O < O % z.z.&   oXoXoXoXoXoXoXoXoXoXoXoXoXoXoXoX",
"oXoXoXoXoXoXoXoXoXoXoXoXoXoX    6 7 1 `. XXX.X.X.X|.{.|.~..  .x.*   oXoXoXoXoXoXoXoXoXoXoXoXoXoXoXoX",
"oXoXoXoXoXoXoXoXoXoXoXoXoXoX    2 7 1 _.{.{.[.[.].'.`./.N . ]  .+   oXoXoXoXoXoXoXoXoXoXoXoXoXoXoXoX",
"oXoXoXoXoXoXoXoXoX    oXoXoXoX  q A . O < < < < 1 b b 1 < . { {   oXoXoXoXoXoXoXoXoXoXoXoXoXoXoXoXoX",
"oXoXoXoXoXoXoXoX                r U 1 )._.`.{.}.|. X XXX/.X 6.U   oXoXoXoXoXoXoXoXoXoXoXoXoXoXoXoX  ",
"oXoXoXoXoXoXoX    o p g @.z X   , 3.: a.s.d.~.^.^.f.d.d.N . 5.:   oXoXoXoXoXoXoXoXoXoXoXoXoXoXoX  O ",
"oXoXoXoXoXoX  o s =.r.p.p.p.w.> > K.#.a u = o = = ; > > a &.c     X       oX  oXoXoXoXoXoXoXoXoXoX. ",
"oXoXoXoXoX  X O.8.X.u - = - z i : r.p.w.w.i.K.K.u.%.c z c &.: = v +.;.;.z o     oXoXoXoXoXoXoXoXoXoX",
"oXoXoXoX    g <.X.= x %.>.-.c - o a > - = i 7.9.i > l z %.o.= ..x u u #.u.u.l     oXoXoXoXoXoXoXoXoX",
"oXoXoXoX  = =.$.= &.L.H.U.R.R.w.X s q.r.9.@.= o s K.L.e.T.7.X ; = g x z > #.I.#.X   oXoXoXoXoXoXoXoX",
"oXoXoX    f :.u a I.&.= > o.L.>.  %.R.r.H.R.X.o i.R.E.e.U.-.o f p p ;.U.p.l #.Y.&.    oXoXoXoXoXoXoX",
"oXoXoX  X O.=.= >.I.u   = X p z   %.E.e.L.R.4.u U.R.T.e.L.&.o ; = p - &.W.K.a w.T.z   oXoXoXoXoXoXoX",
"oXoXoX  = =.$.; y.H.= f 8.%.o X   $.U.e.I.R.4.= w.T.R.r.K.-.  ; *.L.4.i K.W.u.s I.i.o   oXoXoXoXoXoX",
"oXoXoX  = :.$.; y.G.> =.U.U.o.    z r.e.P.R.w.  @.R.T.*.z u   g <.E.E.s w.R.R.X.&.R.l   oXoXoXoXoXoX",
"oXoXoX  = =.$.; :.H.u >.E.R.H.-     ; x J.W.G.X o.R.7.=     o v 1.L.W.*.#.R.R.u.z Y.*.  oXoXoXoXoXoX",
"oXoXoX  ; :.>.p x G.z O.U.R.R.7.X.l o   > r.i.o f %.X   a %.<.e.<.H.W.q.X.R.R.I.l I.u.. oXoXoXoXoXoX",
"oXoXoX  = =.>.O.; 8.*.u i.R.R.R.R.Y.G.s   > %.o u = X +.<.P.W.E.G.K.W.4.@.R.R.I.l H.p.X oXoXoXoXoXoX",
"oXoXoXoXX $.1.:.p f r.i O.L.R.R.R.R.W.G.o = s   X   u :.<.E.W.W.U.t.&.u u.R.R.I.a H.K.o oXoXoXoXoXoX",
"oXoXoXoX  s :.1.%.; @.&.; >.K.U.R.W.R.E.x   X     o O.1.,.e.J.L.r.f p 8.R.R.W.9.l U.u.X oXoXoXoXoXoX",
"oXoXoXoX  X +.1.,.*.z y.x u *.<.r.G.P.U.4.  > p X = :.:.<.G.<.,.1.0.G.R.R.R.U.l &.R.4.  oXoXoXoXoXoX",
"oXoXoXoX    = $.>.e.t.<.,...,.G.<.1.1.<.%.  u u a o $.1.<.L.E.P.U.E.W.R.R.U.X.l I.Y.z   oXoXoXoXoXoX",
"oXoXoXoX      ; $.<.L.L.<.<.U.R.U.U.K.L.>.  a u %.o ..,.1.<.P.W.R.W.R.R.i.x s G.R.w.X   oXoXoXoXoXoX",
"oXoXoXoXoX      = +.1.i.L.G.e.t.L.E.R.R.>.  ..; %.= u :.>.>.y.G.U.U.P.L.>.:.J.R.U.a   oXoXoXoXoXoXoX",
"oXoXoXoXoXoX      X ; f >.U.E.J.t.t.G.J.z   =   o   X +.1.>.t.G.e.e.t.t.G.P.U.i.x     oXoXoXoXoXoXoX",
"oXoXoXoXoXoXoXoX        u ,.P.W.R.R.R.p.= > z . X.*.; = $.>.e.L.E.R.T.R.K.O.x u       oXoXoXoXoXoXoX",
"oXoXoXoXoXoXoXoXoXoXoX    ; +.r.L.H.u.l . u.p.= r.R.r.X = O.:.1.t.L.G.<.p           oXoXoXoXoXoXoXoX",
"oXoXoXoXoXoXoXoXoXoXoXoXoX    o > = o   u I.u.o =.U.J.>   . u p ; d d =     oXoX  oXoXoXoXoXoXoXoXoX",
"oXoXoXoXoXoXoXoXoXoXoXoXoXoXoXoX    u g p y.>.o x <.>.- z p               oXoXoXoXoXoXoXoXoXoXoXoXoX",
"oXoXoXoXoXoXoXoXoXoXoXoXoXoXoXoXoX  ; ..p y.t.> +.J.0.- 9.#.    oXoX  oXoXoXoXoXoXoXoXoXoXoXoXoXoXoX",
"oXoXoXoXoXoXoXoXoXoXoXoXoXoXoX    . = ..u e.E.z o.W.i.- u.c X     oXoXoXoXoXoXoXoXoXoXoXoXoXoXoXoXoX",
"oXoXoXoXoXoXoXoXoXoXoXoXoXoX  # } j . x u :.Y.c X.R.r.> u.- I Y .   oXoXoXoXoXoXoXoXoXoXoXoXoXoXoXoX"
};
