/* XPM */
static char *result[] = {
/* columns rows colors chars-per-pixel */
"50 50 184 2 ",
"   c #010100",
".  c #0B0503",
"X  c #060B03",
"o  c #0A0C05",
"O  c #0E0C08",
"+  c #120602",
"@  c #130A06",
"#  c #190E07",
"$  c #130D08",
"%  c #1B0C09",
"&  c #0C1307",
"*  c #0F1708",
"=  c #0E1909",
"-  c #111207",
";  c #1A1406",
":  c #15120A",
">  c #1A130B",
",  c #121C0A",
"<  c #1D1C07",
"1  c #200F0B",
"2  c #211207",
"3  c #2F1207",
"4  c #24130C",
"5  c #2B150E",
"6  c #221C0F",
"7  c #2F1C0C",
"8  c #331C0D",
"9  c #381A0F",
"0  c #38170B",
"q  c #241E11",
"w  c #2A1E10",
"e  c #361B14",
"r  c #3B1C13",
"t  c #15230C",
"y  c #1A260E",
"u  c #17290F",
"i  c #1B2A0F",
"p  c #1D2514",
"a  c #1C2C11",
"s  c #1D3312",
"d  c #30230A",
"f  c #2B2314",
"g  c #202D10",
"h  c #282B11",
"j  c #2B2619",
"k  c #28291C",
"l  c #302716",
"z  c #3A2F18",
"x  c #382317",
"c  c #233413",
"v  c #243C15",
"b  c #2A3D16",
"n  c #3F3B10",
"m  c #3D301B",
"M  c #2B2C29",
"N  c #393A37",
"B  c #3E3E3F",
"V  c #4D1D0D",
"C  c #471E10",
"Z  c #482813",
"A  c #482618",
"S  c #552413",
"D  c #5C2C17",
"F  c #57261B",
"G  c #4D351F",
"H  c #5C3319",
"J  c #593116",
"K  c #652611",
"L  c #642C1C",
"P  c #642912",
"I  c #7A2D13",
"U  c #633719",
"Y  c #743F1E",
"T  c #463B20",
"R  c #483B21",
"E  c #403322",
"W  c #533420",
"Q  c #523F28",
"!  c #5C3725",
"~  c #632921",
"^  c #683927",
"/  c #254117",
"(  c #2A4217",
")  c #274418",
"_  c #2C4419",
"`  c #2C4C1B",
"'  c #31471B",
"]  c #334B1C",
"[  c #2F521E",
"{  c #33531E",
"}  c #3A541F",
"|  c #34581F",
" . c #3B5620",
".. c #345B21",
"X. c #3D5C22",
"o. c #376122",
"O. c #396625",
"+. c #3C6A26",
"@. c #3C6928",
"#. c #4F4715",
"$. c #7A441F",
"%. c #4F4224",
"&. c #49402A",
"*. c #484E23",
"=. c #534324",
"-. c #594827",
";. c #5C4C29",
":. c #5A4025",
">. c #415E23",
",. c #674529",
"<. c #6C432A",
"1. c #624C2B",
"2. c #64522C",
"3. c #6A572E",
"4. c #69582E",
"5. c #775531",
"6. c #785632",
"7. c #725E33",
"8. c #7B5B34",
"9. c #446324",
"0. c #436C26",
"q. c #4A6B27",
"w. c #426D29",
"e. c #4A6C28",
"r. c #45732A",
"t. c #4B742B",
"y. c #4D7B2D",
"u. c #51762B",
"i. c #537C2E",
"p. c #597F2F",
"a. c #4E7D30",
"s. c #7C6436",
"d. c #7F6838",
"f. c #776235",
"g. c #434245",
"h. c #4C4C4D",
"j. c #575A59",
"k. c #585959",
"l. c #91381A",
"z. c #9F3B16",
"x. c #843E27",
"c. c #A2421E",
"v. c #BB481F",
"b. c #894428",
"n. c #864923",
"m. c #914E27",
"M. c #95482B",
"N. c #9C4B2B",
"B. c #935226",
"V. c #9A5428",
"C. c #B14C28",
"Z. c #A2592A",
"A. c #AE5F2D",
"S. c #B45029",
"D. c #A65330",
"F. c #B35D31",
"G. c #B95A36",
"H. c #887C23",
"J. c #806537",
"K. c #816738",
"L. c #826A39",
"P. c #AD602D",
"I. c #B8602F",
"U. c #B46130",
"Y. c #C25A35",
"T. c #E5612F",
"R. c #FA7544",
"E. c #54822F",
"W. c #58822F",
"Q. c #558431",
"!. c #5A8531",
"~. c #5D8C33",
"^. c #618E34",
"/. c #649336",
"(. c #689637",
"). c #679837",
"_. c #689937",
"`. c #679738",
"'. c #679838",
"]. c #6B9C39",
"[. c #6EA03A",
"{. c #B3A22E",
"}. c #CAB734",
"|. c None",
/* pixels */
"|.|.|.|.|.|.|.|.|.|.|.|.|.|.|.|.|.|.|.|.|.|.|.|.|.|.|.|.|.|.|.|.|.|.|.|.|.|.|.|.|.|.|.|.|.|.|.|.|.|.",
"|.|.|.|.|.|.|.|.|.|.|.|.|.|.|.|.|.|.|.|.|.|.|.|.|.|.|.|.|.|.|.|.|.|.|.|.|.|.|.|.|.|.|.|.|.|.|.|.|.|.",
"|.|.|.|.|.|.|.|.|.|.|.|.|.|.|.|.  @ . |.|.|.|.|.|.|.|.|.|.|.|.|.|.|.|.|.|.|.|.|.|.|.|.|.|.|.|.|.|.|.",
"|.|.|.|.|.|.|.|.|.|.|.|.|.|.|.  C Y.D   @ @ |.|.|.|.|.|.|.|.|.|.|.|.|.|.|.|.|.|.|.|.|.|.|.|.|.|.|.|.",
"|.|.|.|.|.|.|.|.|.|.|.|.|.|.|.  K v.K 0 G.G.4 |.|.|.|.|.|.|.|.|.|.|.|.|.|.|.|.|.|.|.|.|.|.|.|.|.|.|.",
"|.|.|.|.|.|.|.|.|.|.|.|.|.|.    + d ; K S.M.1   |.|.|.  O O |.|.|.|.|.|.|.|.|.|.|.|.|.|.|.|.|.|.|.|.",
"|.|.|.|.|.|.|.|.|.|.|.|.|.  S V < }.H.+ .               Q w |.|.|.|.|.|.|.|.|.|.|.|.|.|.|.|.|.|.|.|.",
"|.|.|.|.|.|.|.|.|.|.|.|.|.. C.I n {.#.+ 3 # 4 e 1 @ O   > o |.|.|.|.|.|.|.|.|.|.|.|.|.|.|.|.|.|.|.|.",
"|.|.|.|.|.|.|.|.|.|.|.|.|.  C 0 + . . z.T.N.w 8.6.^ ! =.:   |.|.|.|.|.|.|.|.|.|.|.|.|.|.|.|.|.|.|.|.",
"|.|.|.|.|.|.|.|.|.|.|.|.|.|.  S l.. . c.R.M.f d.L.L.8.6.1.$     |.|.|.|.|.|.|.|.|.|.|.|.|.|.|.|.|.|.",
"|.|.|.|.|.|.|.|.|.|.|.|.|.|.  D L + w 4 S 4 -.L.L.L.L.d.d.;.O   |.|.|.|.|.|.|.o q.|.|.|.|.|.|.|.|.|.",
"|.|.|.|.|.|.|.|.] |.|.|.|.|.|.    4 <.;.T 2.L.L.L.L.L.L.L.L.=.    |.|.|.|.|.|.  ( q.y |.|.|.|.|.|.|.",
"|.|.|.|.  c (./.g |.|.|.|.|.|.    r 8.L.L.L.L.L.d.L.L.L.L.s.f.f   . . |.|.|.|.|.& W.p.b |.|.|.|.|.|.",
"|.|.|.|.& i.[.p.o |.|.|.|.|.|.    r 1.d.L.L.L.L.L.L.L.L.2.q ;.;.  l R   |.|.|.|.  X.].^.c   |.|.|.|.",
"|.|.|.  ] ].].9.  |.|.|.|.  : M . % . w 1.K.J.s.L.s.s.3.: f s.7.$ O :   |.|.|.|.  b ].].W.,   |.|.|.",
"|.|.  , !.].]. .    |.|.|.  : m . r A : O z ,.^ 8.<.:.> > %.2.s.q   |.|.|.|.|.|.  y /.^.].9.  |.|.|.",
"|.|.  ' ].].]._     |.|.|.|.      5 W R q   > A ^ r $ . > j %.s.q   |.|.|.|.|.|.  , ^.Q.`./.u |.|.|.",
"|.|.  9.[.].].]     |.|.|.|.|.    $ e w 6 < q G 6.2.;.3.7.d.L.f.:   |.|.|.|.|.|.  o W.Q.~./.X.X |.|.",
"|.|.o i.].].].9.    |.|.|.|.|.|.  . ! 8.s.s.K.L.L.L.L.L.L.L.L.2.    |.|.|.|.|.|.    9.~.Q.~.i., |.|.",
"|.  , /.(./.].i.X   |.|.|.|.|.|.    A 8.s.s.L.L.K.s.7.3.-.2.d.z     |.|.|.|.|.|.    X.!.Q.^.E.c |.|.",
"|.  b _./.~.'./.y     |.|.|.|.|.    w W q j j l j f k M N l 4.-   |.|.|.|.|.|.|.    q.~.Q.`.E.)   |.",
"|.  _ ]./.Q./.Q.}     |.|.|.|.|.|.  > k M k.B B g.g.h.j.j.k *.X   |.|.|.|.|.|.|.  o !.Q.E._.i.'     ",
"|.  ) (./.Q._.y.t.o     |.          o ] p p p p p p c c i  .'     |.|.    |.|.|.  c _.y.~.].E.}     ",
"|.  ) ~.).Q._.E.i.y                   X.E.o.} W.W.~.W.i.i./.c     X o , y o     X u._.y./._.y.}     ",
"|.  ) Q.[.E./.~.r.X.    X u { 9.' y X } ~.0.c p { ( c i.~./.t   u { i.^.(.9.    ) '.~.y.).].y.9.  |.",
"  X ) y.'.E.~.[.y.E. .X X ` y.].].i.X { ].]./.q., y u.].]./.,   [ r.`.].(.]   & !.'.E.Q.]._.y.r.o |.",
"    v r./.~.Q.[./.r./.q.& X i b _ [ X _ ].].].[.' } ].].].^., X [ o.y.!.b   X >.].`.r./.[./.t.E.& |.",
"    u O.~./.y.)._.Q.y.].p.c X     X X _ ].].].].b ] ].].[./.,   * s i * X X b (._.a.E.].[.^.t.i.o |.",
"|.  & [ E.[.r.~.]._.y.Q.].(.9.c & -   ( (./.]._.c ' ].].]._.b     X , ' e.e.~.[.Q.a./.].].W.E.e.  |.",
"|.  X , O./.E.+.'.]./.r./.].[.(.!.p., v /.t.].].b b ].].(.].}   t 9.^._.].].].Q.r./.].].'.r.~.}   |.",
"|.|.  X ) y.~.+.Q.].].~.y./.].].].].v _ ^. ._.].] g (._.p._.]   9.[.].].].^.y.t./.].].].~.r.`.c   |.",
"|.|.    t o.E.E.+.~.].]././.].].].].b ( !.} _.`.i - !.].u./.b , E.].].]./.y.Q.'.].].].'.r.W.^.*   |.",
"|.|.|.  X v O.y.+.0./.[.'.[.].].].].' s 0.b (.u., c } ).e.~.y a E.].].].].'.[.].].].'.E.@./.+.  |.|.",
"|.|.|.    X ` @.+.O.@./.[.'.].].].].b s ..i 0...` o.[ w._ X.= s y.].].].].].].].[.'.Q.@.r.~.i   |.|.",
"|.|.|.|.    & [ O.O.O.r./.[.].'.].`.i / o.a t.!.Q.t.E.y.v >.y i +./.].].'.].[.'.`.a.O.+.~.9.    |.|.",
"|.|.|.|.      = ..O.O.O.r.~.'.[.].t.X _ i.b /._.i.0.].'.] u.g , o.r.).].[.].'.~.r.O.O.O.{ &   |.|.|.",
"|.|.|.|.|.      t ..O.O.O.+.y.Q.W.s   / E.b `.].t.>.].].] i.y   [ O.r.!./.~.r.@.O.O.o.v X   |.|.|.|.",
"|.|.|.|.|.|.      s ..O.O.O.O.O.` &   ) i.s W.].e. ._._.] !.b   t o.O.+.+.O.O.O.O.o.s X   |.|.|.|.|.",
"|.|.|.|.|.|.|.      = ) ..o.| s X   . / u.i 0./.9.v t.i._ ^.9.  X ) o.O.O.O.O.O.` t       |.|.|.|.|.",
"|.|.|.|.|.|.|.|.|.    X & = X X       ( y.i O.r.` ) r.r.c !.^.o . X ) o.O.O.o.s X       |.|.|.|.|.|.",
"|.|.|.|.|.|.|.|.|.|.|.          |.|.  v t.u t.`.X.{ _./.s i.^.& >   X s { / =       |.|.|.|.|.|.|.|.",
"|.|.|.|.|.|.|.|.|.|.|.|.|.|.|.|.|.|.  s t.a e.].b ' ].^.i y.W.&       X X         |.|.|.|.|.|.|.|.|.",
"|.|.|.|.|.|.|.|.|.|.|.|.|.|.|.|.|.|.  u y.] O.(.i ] ].^.i t.u.X |.|.|.|.|.|.|.|.|.|.|.|.|.|.|.|.|.|.",
"|.|.|.|.|.|.|.|.|.|.|.|.|.|.|.|.|.|.  t r.{ | /.a { _./.i r.9.  |.|.|.|.|.|.|.|.|.|.|.|.|.|.|.|.|.|.",
"|.|.|.|.|.|.|.|.|.|.|.|.|.|.|.|.|.  . , +.{ _ ~.u { `.~.u 0.]       |.|.|.|.|.|.|.|.|.|.|.|.|.|.|.|.",
"|.|.|.|.|.|.|.|.|.|.|.|.|.|.|.|.  Z $.o | { / t., ` /.i.t w.c @ 2     |.|.|.|.|.|.|.|.|.|.|.|.|.|.|.",
"|.|.|.|.|.|.|.|.|.|.|.|.|.|.|.  # V.8   v ` s o.& ) Q.9.t +.y   U J   |.|.|.|.|.|.|.|.|.|.|.|.|.|.|.",
"|.|.|.|.|.|.|.|.|.|.|.|.|.|.|.  @ m.Z X X , u ) X v ..s , v X . $.m.  |.|.|.|.|.|.|.|.|.|.|.|.|.|.|.",
"|.|.|.|.|.|.|.|.|.|.|.|.|.|.|.  . ~ b.n.H 8 $ - . - : # : 8 H V.F.D   |.|.|.|.|.|.|.|.|.|.|.|.|.|.|.",
"|.|.|.|.|.|.|.|.|.|.|.|.|.|.|.    F ~ x.F.F.Z.V.B.B.Z.P.A.U.F.D.N.9   |.|.|.|.|.|.|.|.|.|.|.|.|.|.|."
};
