/* XPM */
static char *result[] = {
/* columns rows colors chars-per-pixel */
"50 50 140 2 ",
"   c #010100",
".  c #0A0603",
"X  c #060A03",
"o  c #090B05",
"O  c #0E0D08",
"+  c #140703",
"@  c #130A05",
"#  c #1A0A05",
"$  c #110E08",
"%  c #1A0D08",
"&  c #071005",
"*  c #0B1207",
"=  c #0D1807",
"-  c #0E1608",
";  c #0E1A09",
":  c #1D1406",
">  c #111A07",
",  c #13130A",
"<  c #1B130C",
"1  c #121D0A",
"2  c #1A180F",
"3  c #1E1B11",
"4  c #230C04",
"5  c #231006",
"6  c #27120B",
"7  c #2B140C",
"8  c #301206",
"9  c #3B1508",
"0  c #231D12",
"q  c #14220C",
"w  c #1A250E",
"e  c #17290E",
"r  c #1C2A0F",
"t  c #1B2D10",
"y  c #1D3312",
"u  c #202D0F",
"i  c #262115",
"p  c #2C2416",
"a  c #202F11",
"s  c #2A2618",
"d  c #2F2A1B",
"f  c #322D1D",
"g  c #233413",
"h  c #233B15",
"j  c #293C16",
"k  c #383510",
"l  c #3B3522",
"z  c #431A0B",
"x  c #4A2215",
"c  c #512717",
"v  c #532918",
"b  c #592B1A",
"n  c #762C12",
"m  c #6B351F",
"M  c #70341E",
"N  c #453D27",
"B  c #4C3E27",
"V  c #4A3F29",
"C  c #6B3420",
"Z  c #7B3A22",
"A  c #254116",
"S  c #2A4217",
"D  c #26441A",
"F  c #2C4319",
"G  c #2B4B1A",
"H  c #31471A",
"J  c #344C1B",
"K  c #2E521D",
"L  c #34531E",
"P  c #3A541E",
"I  c #34591F",
"U  c #2F5420",
"Y  c #345720",
"T  c #3C5720",
"R  c #355B22",
"E  c #3D5A21",
"W  c #376123",
"Q  c #3A6525",
"!  c #3C6826",
"~  c #3F6728",
"^  c #3D6A29",
"/  c #605719",
"(  c #62581B",
")  c #4B4029",
"_  c #4D482D",
"`  c #52462B",
"'  c #50492E",
"]  c #5A4A2E",
"[  c #415E22",
"{  c #574E33",
"}  c #584E31",
"|  c #5B5537",
" . c #625133",
".. c #436324",
"X. c #496627",
"o. c #446B26",
"O. c #496A26",
"+. c #4B6D29",
"@. c #447327",
"#. c #487027",
"$. c #45722A",
"%. c #4D7229",
"&. c #4C792D",
"*. c #52752C",
"=. c #537B2D",
"-. c #587C2E",
";. c #4F7F30",
":. c #80361A",
">. c #8D391B",
",. c #913917",
"<. c #973D1F",
"1. c #A8421B",
"2. c #B0441F",
"3. c #9C4C2D",
"4. c #A44420",
"5. c #B85633",
"6. c #E46434",
"7. c #E56C3E",
"8. c #EC6C3C",
"9. c #DB6940",
"0. c #E16C41",
"q. c #FE7A49",
"w. c #54812E",
"e. c #59812F",
"r. c #548331",
"t. c #5B8431",
"y. c #5C8A33",
"u. c #608733",
"i. c #618E34",
"p. c #649336",
"a. c #689737",
"s. c #679837",
"d. c #689837",
"f. c #669738",
"g. c #699738",
"h. c #679838",
"j. c #6B9C39",
"k. c #6EA03B",
"l. c #968528",
"z. c None",
/* pixels */
"z.z.z.z.z.z.z.z.z.z.z.z.z.z.z.z.z.    z.z.z.z.z.z.z.z.z.z.z.z.z.z.z.z.z.z.z.z.z.z.z.z.z.z.z.z.z.z.z.",
"z.z.z.z.z.z.z.z.z.z.z.z.z.z.z.z.  7 c @   z.z.z.z.z.z.z.z.z.z.z.z.z.z.z.z.z.z.z.z.z.z.z.z.z.z.z.z.z.",
"z.z.z.z.z.z.z.z.z.z.z.z.z.z.z.z.  3.q.Z         z.z.z.z.z.z.z.z.z.z.z.z.z.z.z.z.z.z.z.z.z.z.z.z.z.z.",
"z.z.z.z.z.z.z.z.z.z.z.z.z.z.z.z.  b 6.,.  0 4.c   z.z.z.z.z.z.z.z.z.z.z.z.z.z.z.z.z.z.z.z.z.z.z.z.z.",
"z.z.z.z.z.z.z.z.z.z.z.z.z.z.z.@ 6 # 9 5 o z 8.7.6   z.z.z.z.z.z.z.z.z.z.z.z.z.z.z.z.z.z.z.z.z.z.z.z.",
"z.z.z.z.z.z.z.z.z.z.z.z.z.z.  Z 7.1.# ( l.: <.5.%     z.z.      z.z.z.z.z.z.z.z.z.z.z.z.z.z.z.z.z.z.",
"z.z.z.z.z.z.z.z.z.z.z.z.z.z.  m 7.2.4 k / @ # +   1 w     < | $ z.z.z.z.z.z.z.z.z.z.z.z.z.z.z.z.z.z.",
"z.z.z.z.z.z.z.z.z.z.z.z.z.z.z.. 7 # 8 4 . n :.# X T i.[ - $ V o z.z.z.z.z.z.z.z.z.z.z.z.z.z.z.z.z.z.",
"z.z.z.z.z.z.z.z.z.z.z.z.z.z.z.    C 6.>.+ 1.8.x 1 #.i.j.*.;     z.z.z.z.z.z.z.z.z.z.z.z.z.z.z.z.z.z.",
"z.z.z.z.z.z.z.z.z.z.z.z.z.z.z.z.  C 9.M X @ x , T i.r.h.j.O..   z.z.z.z.z.z.z.z.z.z.z.z.z.z.z.z.z.z.",
"z.z.z.z.z.z.z.z.z.z.z.z.z.z.        < 1 D t ; D y.j.y.y.j.h.y   z.z.z.z.z.z.z.z.z.z.z.z.z.z.z.z.z.z.",
"z.z.z.z.z.z.z.z.z.z.z.z.z.          y Q r.w.&.i.j.j.f.y.j.k.E   z.z.z.z.z.z.z.z.z.z.z.z.z.z.z.z.z.z.",
"z.z.z.z.z.z.z.z.z.z.z.z.z.  d _ o o R r.j.j.j.j.j.j.j.g.j.j.=.o   z.z.z.z.z.z.z.z.z.z.  z.z.z.z.z.z.",
"z.z.z.  X   z.z.z.z.z.z.z.  0  .@ 1 ! i.k.j.k.j.j.j.j.j.j.k.i.>         z.z.z.z.z.z.    z.z.z.z.z.z.",
"z.z.z.  _ i             z.z.  .   q K o.-.e.=.a.j.e.u.p.i.=.O.t . { 2   z.z.        N s z.z.z.z.z.z.",
"z.z.z.  6 , 1 F J F -     z.z.z.  q h 1 > > r u.j.[ w w w , [ j   s o               N i z.z.z.z.z.z.",
"z.z.z.    j y.i.y.p.%.r   z.z.z.  q W -.-.-.u.g.j.g.t.*.%.t.a.j             y F J g X   z.z.z.z.z.z.",
"z.z.z.  t y.j.r.p.w.p.*.o   z.z.  1 ! i.k.j.g.g.j.j.j.j.j.k.j.H     z.  o E s.p.y.d...X   z.z.z.z.z.",
"z.z.z.. X.j.i.r.h.r.p.p.1   z.z.  q ! y.j.t.a r T i.j.j.j.j.j.J     z.  J j.p.j.r.p.j.E   z.z.z.z.z.",
"z.z.z.* t.j.y.y.h.r.d.p.w   z.z.  e ^ y.j.[ 1 T g %.k.j.j.j.j.=.o   z.  E k.r.s.r.y.j.p.g   z.z.z.z.",
"z.z.z.1 p.j.r.y.h.w.f.f.r   z.z.  t ^ y.j.R o %.h.h.j.j.j.j.j.*.X   z.  S k.=.i.f.r.h.k.o.  z.z.z.z.",
"      t p.j.=.i.h.r.f.i.1 z.z.z.  y ! y.h.y w ;.p.p.j.j.g.i.j.*.X   z.  g j.O.-.h.w.s.j.y.* z.z.z.z.",
". } p a s.j.r.i.j.w.s.p.q   z.z.  y ! y.p.q g T q P j.j.y.y.k.*.X   z.  S k...=.j.w.i.k.p.q       z.",
"  f 7 a s.k.&.w.k.r.y.j.J   z.z.  e Q y.f.G ; 1 A y.j.j.y.t.j.+.      X O.k...-.k.w.y.k.d.a < V o   ",
"z.    q p.j.=...j.p.*.j.t.=   z.  e ! y.j.w.! o.y.j.j.j.y.r.k.O.    X H g.a.P i.k.w.y.j.d.g < s   z.",
"z.z.  * t.j.p.J p.j.....j.+.1     q W y.j.j.s.s.j.j.j.j.-.=.k.o.  & I p.i.J P j.j.O.y.k.p.w     z.z.",
"z.z.    ..j.j.T ..j.i.j E y...y X q ! y.j.s.j.j.j.j.j.j.O.+.k...  - D A r J p.j.p.A y.k.-.o   z.z.z.",
"z.z.    g g.j.t.g O.j.t.g t A G = = W r.p.r.j.j.j.j.j.j.....j.E   X 1 h *.d.j.j.P S h.k.P     z.z.z.",
"z.z.    . R s.j.+.e Y ;.^ y q = X & R y.e.O.k.j.j.d.j.k.X.P j.P   o y I y.i.=.H g -.j.u.w     z.z.z.",
"z.z.z.    - ! y.h.o.; e G W W W e o Y r.*.P k.j.j.j.j.k...P k.J   & ; ; q e i J t.k.p.j     z.z.z.z.",
"z.z.z.z.    q R @.@.K y q q q e = X K r.*.P j.j.j.j.j.j...J k.H   - h G G I t.j.j.-.h   z.z.z.z.z.z.",
"z.z.z.z.z.    & y K ! Q W K G y q   G r.*.P j.j.j.j.j.k...J k.F       * q y S H j >     z.z.z.z.z.z.",
"z.z.z.z.z.o V <   o t G U R R U e   D &.O.E j.j.j.h.j.j.[ J j.j     z.z.          0 l   z.z.z.z.z.z.",
"z.z.z.z.z.X s o         X X &       D &.E E j.j.t.f.j.k.[ P j.j   z.z.z.z.z.z.z.  , 3   z.z.z.z.z.z.",
"z.z.z.z.z..   z.z.z.z.              h &...E j.j.T t.j.j.[ [ j.g   z.z.z.z.z.z.z.z.    z.z.z.z.z.z.z.",
"z.z.z.z.z.z.z.z.z.z.z.z.z.z.z.z.z.  y @...J j.j.J =.j.j.[ [ j.g     z.z.z.z.z.z.z.z.z.z.z.z.z.z.z.z.",
"z.z.z.z.z.z.z.z.z.z.z.z.z.z.z.z.z.  q ^ [ H j.j.H %.k.j.T O.g.u   $   z.z.z.z.z.z.z.z.z.z.z.z.z.z.z.",
"z.z.z.z.z.z.z.z.z.z.z.z.z.z.z.z.z.  = ^ ..H j.h.H %.k.j.P %.p.1 @ ] ,   z.z.z.z.z.z.z.z.z.z.z.z.z.z.",
"z.z.z.z.z.z.z.z.z.z.z.z.z.z.z.z.z.  = ! ..j h.j.j =.j.j.H *.u.>   $   z.z.z.z.z.z.z.z.z.z.z.z.z.z.z.",
"z.z.z.z.z.z.z.z.z.z.z.z.z.z.z.z.z.  = Q O.g p.p.g -.j.h.j =.i.>   z.z.z.z.z.z.z.z.z.z.z.z.z.z.z.z.z.",
"z.z.z.z.z.z.z.z.z.z.z.z.z.z.z.z.z.  - W ..t p.p.g t.j.a.g -.j.g   z.z.z.z.z.z.z.z.z.z.z.z.z.z.z.z.z.",
"z.z.z.z.z.z.z.z.z.z.z.z.z.z.z.  @ $ o R ..t u.y.r t.j.p.g *.a.r   z.z.z.z.z.z.z.z.z.z.z.z.z.z.z.z.z.",
"z.z.z.z.z.z.z.z.z.z.z.z.z.z.z.  f B X I E q y.r.q r.j.p.g -.p.>   z.z.z.z.z.z.z.z.z.z.z.z.z.z.z.z.z.",
"z.z.z.z.z.z.z.z.z.z.z.z.z.z.z.z.  . X K E q r.*.q =.k.y.r e.u.*   z.z.z.z.z.z.z.z.z.z.z.z.z.z.z.z.z.",
"z.z.z.z.z.z.z.z.z.z.z.z.z.z.z.z.z.z.  D Y - %.=.q &.j.y.e =.e.o .   z.z.z.z.z.z.z.z.z.z.z.z.z.z.z.z.",
"z.z.z.z.z.z.z.z.z.z.z.z.z.z.z.z.z.z.  h R ; ~ y.y o.j.t.q @.=.X } '   z.z.z.z.z.z.z.z.z.z.z.z.z.z.z.",
"z.z.z.z.z.z.z.z.z.z.z.z.z.z.z.z.z.z.  y R * R u.h ..h.*.1 o.o.X p 0   z.z.z.z.z.z.z.z.z.z.z.z.z.z.z.",
"z.z.z.z.z.z.z.z.z.z.z.z.z.z.z.z.z.z.  t R * L r.h W p.+.1 Q J     z.z.z.z.z.z.z.z.z.z.z.z.z.z.z.z.z.",
"z.z.z.z.z.z.z.z.z.z.z.z.z.z.z.z.z.    1 R & G &.g R r...; W t   z.z.z.z.z.z.z.z.z.z.z.z.z.z.z.z.z.z.",
"z.z.z.z.z.z.z.z.z.z.z.z.z.z.z.z.      - R - h o.y R &.P q W q     z.z.z.z.z.z.z.z.z.z.z.z.z.z.z.z.z."
};
